# xmcd CD database file generated by OrangeCD 5.2
#
# Track frame offsets:
#	150
#	32194
#	57069
#	80599
#	96035
#	130971
#	149389
#	198161
#	219869
#	238149
#	259707
#	290461
#
# Disc length: 4328 seconds
#
# Revision: 0
# Processed by: cddbd v1.5.1PL0 Copyright (c) Steve Scherf et al.
# Submitted via: OrangeCD 5.2
#
DISCID=ab10e60c
DTITLE=Tedeschi, Susan - Waterfront Blues Festival Portland, OR 7/6/2003
DYEAR=2003
DGENRE=Blues
TTITLE0=Mama, He Treats Your Daughter Mean
TTITLE1=The Feeling Music Brings
TTITLE2=In The Garden
TTITLE3=(You Can Make It) If You Try
TTITLE4=Wait For Me
TTITLE5=Alone
TTITLE6=All Alone At Midnight
TTITLE7=You Need to Be With Me
TTITLE8=I Fell In Love
TTITLE9=Love's In Need of Love
TTITLE10=I Miss You
TTITLE11=Angel From Montgomery
EXTD=
EXTT0=
EXTT1=
EXTT2=
EXTT3=
EXTT4=
EXTT5=
EXTT6=
EXTT7=
EXTT8=
EXTT9=
EXTT10=
EXTT11=
PLAYORDER=
